<svg version="1.2" xmlns="http://www.w3.org/2000/svg" viewBox="0 0 100 100" width="100" height="100">
	<title>1486348818-forward-arrows-arrow-front-go-blue_80478-svg</title>
	<style>
		.s0 { fill: #415c8c } 
		.s1 { opacity: .6;fill: #ffffff } 
		.s2 { fill: #000000 } 
		.s3 { fill: none;stroke: #000000;stroke-miterlimit:10 } 
	</style>
	<g id="blue">
		<g id="Layer_8_copy_2">
			<path id="Layer" class="s0" d="m72.7 42.3h-8.3c-0.5 0-1.1 0.3-1.3 0.8l-11.7 20.2c-0.6 1-2.2 1-2.8 0l-11.6-20.2c-0.3-0.5-0.9-0.8-1.4-0.8h-8.3c-1.3 0-2 1.3-1.4 2.4l22.7 39.3c0.6 1.1 2.2 1.1 2.8 0l22.7-39.3c0.6-1.1-0.1-2.4-1.4-2.4z"/>
			<path id="Layer" class="s1" d="m50.9 65.1q0.9-1.5 1.7-3-0.7 0.7-1.4 1.4c-0.7 0.8-2 0.7-2.6-0.2l-11.6-20.2c-0.3-0.5-0.9-0.8-1.4-0.8h-8.3c-1.1 0-1.9 1.1-1.5 2.1q0.2-0.1 0.5-0.1h8.3c0.5 0 1.1 0.3 1.4 0.8l11.6 20.2c0.1 0.1 0.6 0.7 1.4 0.8 0.8 0 1.5-0.3 1.9-1z"/>
			<path id="Layer" class="s1" d="m62.1 45.1c0.2-0.5 0.8-0.8 1.3-0.8h8.3c1 0 1.7 0.9 1.6 1.8l0.8-1.4c0.6-1.1-0.1-2.4-1.4-2.4h-8.3c-0.5 0-1.1 0.3-1.3 0.8l-1.1 1.9q0 0 0 0.1z"/>
			<path id="Layer" class="s2" d="m51.4 84l22.7-39.3q0.2-0.3 0.2-0.6l-21.9 37.9c-0.6 1.1-2.2 1.1-2.8 0l-22.7-39.3q-0.1-0.2-0.1-0.3c-1 0.3-1.4 1.4-0.9 2.3l22.7 39.3c0.6 1.1 2.2 1.1 2.8 0z"/>
			<path id="Layer" fill-rule="evenodd" class="s3" d="m72.7 42.3h-8.3c-0.5 0-1.1 0.3-1.3 0.8l-11.7 20.2c-0.6 1-2.2 1-2.8 0l-11.6-20.2c-0.3-0.5-0.9-0.8-1.4-0.8h-8.3c-1.3 0-2 1.3-1.4 2.4l22.7 39.3c0.6 1.1 2.2 1.1 2.8 0l22.7-39.3c0.6-1.1-0.1-2.4-1.4-2.4z"/>
			<path id="Layer" class="s0" d="m72.7 15.2h-8.3c-0.5 0-1.1 0.3-1.4 0.8l-11.6 20.2c-0.6 1-2.2 1-2.8 0l-11.7-20.2c-0.2-0.5-0.8-0.8-1.3-0.8h-8.3c-1.3 0-2 1.3-1.4 2.4l22.7 39.3c0.6 1.1 2.2 1.1 2.8 0l22.7-39.3c0.6-1.1-0.1-2.4-1.4-2.4z"/>
			<path id="Layer" class="s1" d="m50.9 38q0.9-1.5 1.7-3-0.7 0.7-1.4 1.5c-0.7 0.7-2 0.6-2.6-0.3l-11.7-20.2c-0.2-0.5-0.8-0.8-1.3-0.8h-8.3c-1.2 0-1.9 1.1-1.6 2.1q0.3-0.1 0.6-0.1h8.3c0.5 0 1.1 0.3 1.3 0.8l11.7 20.2c0.1 0.1 0.6 0.7 1.4 0.8 0.7 0 1.5-0.3 1.9-1z"/>
			<path id="Layer" class="s1" d="m62.1 18c0.2-0.5 0.8-0.8 1.3-0.8h8.3c1 0 1.7 0.9 1.6 1.8l0.8-1.4c0.6-1.1-0.1-2.4-1.4-2.4h-8.3c-0.5 0-1.1 0.3-1.3 0.8l-1.1 1.9q0 0 0 0.1z"/>
			<path id="Layer" class="s2" d="m51.4 56.9l22.7-39.3q0.2-0.3 0.2-0.6l-21.9 37.9c-0.6 1.1-2.2 1.1-2.8 0l-22.7-39.3q-0.1-0.2-0.2-0.3c-0.9 0.3-1.3 1.4-0.8 2.3l22.7 39.3c0.6 1.1 2.2 1.1 2.8 0z"/>
			<path id="Layer" fill-rule="evenodd" class="s3" d="m72.7 15.2h-8.3c-0.5 0-1.1 0.3-1.4 0.8l-11.6 20.2c-0.6 1-2.2 1-2.8 0l-11.7-20.2c-0.2-0.5-0.8-0.8-1.3-0.8h-8.3c-1.3 0-2 1.3-1.4 2.4l22.7 39.3c0.6 1.1 2.2 1.1 2.8 0l22.7-39.3c0.6-1.1-0.1-2.4-1.4-2.4z"/>
		</g>
	</g>
</svg>